<svg id="Icons" xmlns="http://www.w3.org/2000/svg" viewBox="0 0 215 215"><defs><style>.cls-1{fill:#fff;}</style></defs><g id="Ok"><circle id="Background" class="cls-1" cx="107.5" cy="107.5" r="107.5"/><g id="Ok-2" data-name="Ok"><path id="Ok-3" data-name="Ok" d="M938.45,664.9a29.82,29.82,0,1,0-29.81-29.82,29.86,29.86,0,0,0,29.81,29.82m0-42.18a12.37,12.37,0,1,1-12.36,12.36,12.37,12.37,0,0,1,12.36-12.36" transform="translate(-831 -554)"/><path id="Ok-4" data-name="Ok" d="M950.54,689.17a55.77,55.77,0,0,0,17.35-7.2,8.77,8.77,0,1,0-9.32-14.86,37.93,37.93,0,0,1-40.14,0A8.77,8.77,0,1,0,909.1,682a55,55,0,0,0,17.35,7.2l-16.7,16.7a8.74,8.74,0,0,0,0,12.37,9.07,9.07,0,0,0,6.18,2.59,8.5,8.5,0,0,0,6.19-2.59l16.43-16.43L955,718.24a8.75,8.75,0,0,0,12.37-12.37Z" transform="translate(-831 -554)"/></g></g></svg>